PathFileType	4	(X/Y/Z)	D:\Vicon data\Senior Design EMG regression\Subject 2- Oliver\Session 3\oliver- static trial.trc
DataRate	CameraRate	NumFrames	NumMarkers	Units	OrigDataRate	OrigDataStartFrame	OrigNumFrames
100.0	100.0	4	60	mm	100.0	354	565	
Frame#	Time	HEAD			C7			CLAV			STUR			LSHO			LHAR2			LHME			LRAH			LRAD			LULN			LMCM			RSHO			RHAR2			RHME			RRAH			RRAD			RULN			RMCM			LASI			RASI			LPSI			RPSI			LLAT			LLFC			LKNE			LLAN			LHEE			LTOE			RLAT			RLFC			RKNE			RLAN			RHEE			RTOE			RSMT			RMAN			LSMT			LMAN			RSAT1			RSAT			RMFC			LSAT1			LSAT			LMFC			BARB			RHAR1			RHGT			RHHB			RHHF			RHLE			RMCR			RMCA			RMCI			LHHF			LHHB			LHGT			LHAR1			LHLE			LMCR			LMCI			
		X1	Y1	Z1	X2	Y2	Z2	X3	Y3	Z3	X4	Y4	Z4	X5	Y5	Z5	X6	Y6	Z6	X7	Y7	Z7	X8	Y8	Z8	X9	Y9	Z9	X10	Y10	Z10	X11	Y11	Z11	X12	Y12	Z12	X13	Y13	Z13	X14	Y14	Z14	X15	Y15	Z15	X16	Y16	Z16	X17	Y17	Z17	X18	Y18	Z18	X19	Y19	Z19	X20	Y20	Z20	X21	Y21	Z21	X22	Y22	Z22	X23	Y23	Z23	X24	Y24	Z24	X25	Y25	Z25	X26	Y26	Z26	X27	Y27	Z27	X28	Y28	Z28	X29	Y29	Z29	X30	Y30	Z30	X31	Y31	Z31	X32	Y32	Z32	X33	Y33	Z33	X34	Y34	Z34	X35	Y35	Z35	X36	Y36	Z36	X37	Y37	Z37	X38	Y38	Z38	X39	Y39	Z39	X40	Y40	Z40	X41	Y41	Z41	X42	Y42	Z42	X43	Y43	Z43	X44	Y44	Z44	X45	Y45	Z45	X46	Y46	Z46	X47	Y47	Z47	X48	Y48	Z48	X49	Y49	Z49	X50	Y50	Z50	X51	Y51	Z51	X52	Y52	Z52	X53	Y53	Z53	X54	Y54	Z54	X55	Y55	Z55	X56	Y56	Z56	X57	Y57	Z57	X58	Y58	Z58	X59	Y59	Z59	X60	Y60	Z60	
354	3.53	-1.7826425	1659.5834	-412.13693	4.806777	1485.9843	-194.22931	7.4724073	1419.996	-329.98444	7.4138818	1218.4137	-386.12445	-151.88768	1477.9196	-256.68356	-318.22015	1430.0079	-310.58636	-406.73297	1304.6786	-345.80658	-372.95325	1384.5328	-388.3183	-363.38818	1365.641	-575.3407	-439.55963	1360.8738	-577.91852	-385.89001	1374.7164	-663.02393	166.68356	1460.8995	-234.11182	315.14029	1412.937	-286.28238	424.54739	1383.2941	-295.31061	404.69504	1377.7875	-339.29453	417.20056	1341.7809	-535.93463	488.30804	1362.193	-530.48682	455.28281	1345.3507	-629.21057	-81.36824	924.82886	-396.64929	135.20247	941.98602	-388.94931	-15.152204	990.75153	-167.90196	62.783123	990.51349	-165.94955	-130.1167	581.68542	-328.4725	-116.80576	489.78461	-310.58075	-71.990608	435.16986	-338.64911	-125.76827	93.697983	-225.84647	-82.964439	73.726135	-163.19969	-90.391808	48.638126	-427.22388	215.37936	725.54803	-295.96677	140.81386	486.01413	-308.5592	99.419044	448.80316	-327.64825	149.89479	88.723373	-220.31961	104.63097	71.855965	-165.34969	113.63076	54.130047	-422.60062	166.71703	53.792213	-360.39282	67.144974	98.735596	-239.32927	-148.49524	54.588589	-346.11108	-38.850014	95.105003	-241.55038	157.37814	813.86304	-392.38757	119.72481	605.51831	-371.6022	43.441055	470.27072	-288.61426	-76.098083	790.83929	-420.08804	-84.483475	637.63995	-393.11154	-14.129687	471.86725	-309.75705	57.203194	1234.1293	-146.25238	380.34177	1376.4652	-242.58916	274.043	1430.9849	-229.12053	185.20847	1374.5758	-169.58698	176.4837	1424.4421	-319.08862				479.08252	1342.8406	-620.01898	494.9729	1348.0554	-589.34912	431.42175	1346.7382	-628.50873	-152.49655	1427.1268	-338.90698	-192.12567	1414.8362	-213.11887	-257.62756	1464.9231	-279.80563	-375.27243	1398.0553	-272.68826	-415.69965	1406.8214	-330.47198	-411.44525	1369.6777	-662.41425	-356.68228	1370.204	-662.7431
355	3.54	-1.7849861	1659.5521	-412.11905	4.8129573	1485.9722	-194.20354	7.4854288	1420.0216	-329.95764	7.4129047	1218.4382	-386.12686	-151.89706	1477.8865	-256.65134	-318.1806	1430.1079	-310.67209	-406.85934	1304.5425	-345.83484	-372.89688	1384.5536	-388.33926	-363.23657	1365.7142	-575.36505	-439.49072	1360.9004	-577.96857	-385.8515	1374.9518	-662.83929	166.67888	1460.9116	-234.11087	315.15948	1412.9844	-286.29355	424.76004	1383.476	-295.46167	404.72659	1377.7614	-339.24628	417.23471	1341.9301	-535.81958	488.32202	1362.354	-530.51392	455.31021	1345.55	-629.25726	-81.368752	924.80713	-396.63306	135.21445	941.9873	-388.90192	-15.172268	990.72437	-167.88295	62.764442	990.48895	-165.91945	-130.16327	581.69299	-328.44318	-116.78606	489.7532	-310.59296	-72.000488	435.13123	-338.6489	-125.76458	93.665436	-225.88179	-82.954651	73.707886	-163.21883	-90.394966	48.633701	-427.23853	215.40182	725.57745	-295.94327	140.84645	486.00204	-308.5722	99.419792	448.79916	-327.62448	149.90591	88.694511	-220.33086	104.62632	71.843277	-165.38023	113.62727	54.117241	-422.59656	166.70418	53.770042	-360.39807	67.13472	98.754105	-239.3298	-148.4859	54.588547	-346.11624	-38.840504	95.088799	-241.5432	157.41139	813.88348	-392.38293	119.72659	605.53723	-371.5965	43.437626	470.24088	-288.6467	-76.177292	790.82355	-419.98547	-84.475662	637.66302	-393.10437	-14.132278	471.86139	-309.80951	57.246132	1234.1117	-146.26285	380.35605	1376.5653	-242.59702	274.07132	1431.0338	-229.13255	185.22084	1374.5731	-169.59032	176.47838	1424.4799	-319.08298				479.05893	1342.9951	-620.04413	494.98251	1348.2802	-589.38843	431.43158	1346.9111	-628.51526	-152.50696	1427.1031	-338.89731	-192.10826	1414.7905	-213.12172	-257.63458	1464.8865	-279.78717	-375.26971	1397.9691	-272.66458	-415.70493	1406.7604	-330.48184	-411.38986	1369.7599	-662.42731	-356.58334	1370.3259	-662.75861
356	3.55	-1.80761	1659.5302	-412.07523	4.8296509	1485.9653	-194.1629	7.4655538	1420.0565	-329.93097	7.3941431	1218.4434	-386.07608	-151.90933	1477.905	-256.59763	-318.19611	1430.0852	-310.61575	-406.84412	1304.4866	-345.88489	-372.84274	1384.5737	-388.36853	-363.19168	1365.7764	-575.40228	-439.40161	1360.8983	-577.96844	-385.73004	1374.8613	-663.05579	166.66318	1460.9274	-234.08542	315.15271	1413.0504	-286.29224	424.59561	1383.387	-295.43835	404.79312	1377.9172	-339.31528	417.24951	1342.0352	-535.81842	488.33655	1362.5377	-530.5069	455.32083	1345.8184	-629.27826	-81.376312	924.82495	-396.61835	135.16963	942.00928	-388.87726	-15.139458	990.75513	-167.8243	62.74329	990.50403	-165.84109	-130.22403	581.72137	-328.43832	-116.83537	489.77859	-310.5972	-72.010651	435.15341	-338.6752	-125.79125	93.694351	-225.84251	-82.95713	73.696922	-163.22284	-90.382629	48.663433	-427.23096	215.3869	725.57025	-295.93765	140.82874	485.99979	-308.55161	99.422798	448.82675	-327.62247	149.92401	88.731552	-220.32521	104.65752	71.839432	-165.38838	113.61084	54.136387	-422.5979	166.71335	53.776157	-360.39014	67.14119	98.760422	-239.37476	-148.50018	54.601604	-346.11877	-38.841537	95.093193	-241.55527	157.38315	813.88342	-392.35458	119.70847	605.54108	-371.55655	43.45039	470.23849	-288.5816	-76.081879	790.84583	-420.03543	-84.494431	637.6604	-393.09268	-14.128356	471.86288	-309.79117	57.276566	1234.1177	-146.25816	380.38013	1376.6555	-242.62579	274.07669	1431.0938	-229.12442	185.24069	1374.5902	-169.59679	176.48517	1424.526	-319.07892				479.1188	1343.1755	-620.08093	495.1803	1348.6125	-589.50604	431.44962	1347.1262	-628.50677	-152.49916	1427.1556	-338.87799	-192.13269	1414.7827	-213.12634	-257.659	1464.8837	-279.76086	-375.25763	1397.9229	-272.67004	-415.67047	1406.7271	-330.49332	-411.32019	1369.9911	-662.50372	-356.45316	1370.4923	-662.77448
357	3.56	-1.7691524	1659.524	-412.09848	4.8517642	1485.9746	-194.11522	7.4715185	1420.071	-329.89151	7.3926926	1218.4757	-386.07715	-151.91844	1477.9111	-256.55713	-318.20065	1430.0691	-310.61035	-406.6702	1304.4301	-345.98334	-372.7923	1384.527	-388.37393	-363.1459	1365.8167	-575.42377	-439.33362	1360.8873	-578.00079	-385.70895	1375.098	-662.86639	166.64435	1460.9501	-234.07957	315.15326	1413.1031	-286.34229	424.59839	1383.4541	-295.44064	404.81509	1377.9906	-339.33948	417.22659	1342.1843	-535.79547	488.31491	1362.6742	-530.54651	455.371	1346.0452	-629.33478	-81.398788	924.83563	-396.61395	135.16418	942.01215	-388.87845	-15.204041	990.73914	-167.845	62.733383	990.51056	-165.82137	-130.23773	581.70782	-328.43106	-116.82674	489.77032	-310.59058	-72.019478	435.17081	-338.70831	-125.73868	93.632835	-225.85837	-82.975365	73.703674	-163.2213	-90.398041	48.638943	-427.24039	215.36087	725.55664	-295.93024	140.8286	486.00513	-308.55978	99.408974	448.77872	-327.61774	149.90894	88.725563	-220.33073	104.64639	71.826797	-165.37318	113.60813	54.125393	-422.59198	166.72151	53.799408	-360.41434	67.100204	98.788467	-239.33533	-148.50761	54.589264	-346.1199	-38.841103	95.100159	-241.52361	157.38908	813.86725	-392.35092	119.73127	605.55701	-371.58853	43.432896	470.2142	-288.53769	-76.08255	790.86731	-420.01819	-84.494156	637.67737	-393.08984	-14.166982	471.81174	-309.76404	57.312889	1234.1255	-146.21544	380.42261	1376.6567	-242.72295	274.06488	1431.1375	-229.14841	185.26909	1374.6121	-169.59396	176.46007	1424.5515	-319.0629				479.05841	1343.3551	-620.14496	495.04288	1348.6685	-589.44141	431.4808	1347.2681	-628.52411	-152.53297	1427.141	-338.85452	-192.15065	1414.7593	-213.123	-257.66266	1464.8729	-279.71283	-375.26389	1397.8635	-272.66708	-415.63171	1406.661	-330.51944	-411.24005	1369.83	-662.48187	-356.43283	1370.4503	-662.79602
